solid OpenSCAD_Model
  facet normal 0 0 -1
    outer loop
      vertex -10 30 0
      vertex -9.78148 32.0791 0
      vertex -9.78148 27.9209 0
    endloop
  endfacet
  facet normal 0 0 -1
    outer loop
      vertex -9.78148 27.9209 0
      vertex -9.78148 32.0791 0
      vertex -9.13546 34.0674 0
    endloop
  endfacet
  facet normal 0 0 -1
    outer loop
      vertex -9.78148 27.9209 0
      vertex -9.13546 34.0674 0
      vertex -8.09017 35.8779 0
    endloop
  endfacet
  facet normal 0 0 -1
    outer loop
      vertex -9.78148 27.9209 0
      vertex -8.09017 35.8779 0
      vertex -6.69131 37.4314 0
    endloop
  endfacet
  facet normal 0 0 -1
    outer loop
      vertex -9.78148 27.9209 0
      vertex -6.69131 37.4314 0
      vertex -5 38.6603 0
    endloop
  endfacet
  facet normal 0 0 -1
    outer loop
      vertex -9.78148 27.9209 0
      vertex -5 38.6603 0
      vertex -4 39.1055 0
    endloop
  endfacet
  facet normal 0 0 -1
    outer loop
      vertex -4 39.1055 0
      vertex -4 46 0
      vertex -2 46 0
    endloop
  endfacet
  facet normal 0 0 -1
    outer loop
      vertex -4 39.1055 0
      vertex -2 46 0
      vertex -2 45 0
    endloop
  endfacet
  facet normal 0 0 -1
    outer loop
      vertex -4 39.1055 0
      vertex -2 45 0
      vertex -2 37.2201 0
    endloop
  endfacet
  facet normal 0 0 -1
    outer loop
      vertex -4 39.1055 0
      vertex -2 37.2201 0
      vertex -3.75 36.4952 0
    endloop
  endfacet
  facet normal 0 0 -1
    outer loop
      vertex -4 39.1055 0
      vertex -3.75 36.4952 0
      vertex -5.3033 35.3033 0
    endloop
  endfacet
  facet normal 0 0 -1
    outer loop
      vertex -4 39.1055 0
      vertex -5.3033 35.3033 0
      vertex -6.49519 33.75 0
    endloop
  endfacet
  facet normal 0 0 -1
    outer loop
      vertex -4 39.1055 0
      vertex -6.49519 33.75 0
      vertex -9.78148 27.9209 0
    endloop
  endfacet
  facet normal 0 0 -1
    outer loop
      vertex -7.5 30 0
      vertex -9.78148 27.9209 0
      vertex -7.24444 31.9411 0
    endloop
  endfacet
  facet normal 0 0 -1
    outer loop
      vertex 5 38.6603 0
      vertex 6.49519 33.75 0
      vertex 4 39.1055 0
    endloop
  endfacet
  facet normal 0 0 -1
    outer loop
      vertex -9.78148 27.9209 0
      vertex -7.5 30 0
      vertex -7.24444 28.0589 0
    endloop
  endfacet
  facet normal 0 0 -1
    outer loop
      vertex -7.24444 28.0589 0
      vertex -6.49519 26.25 0
      vertex -9.78148 27.9209 0
    endloop
  endfacet
  facet normal 0 0 -1
    outer loop
      vertex -6.49519 26.25 0
      vertex -5.3033 24.6967 0
      vertex -9.78148 27.9209 0
    endloop
  endfacet
  facet normal 0 0 -1
    outer loop
      vertex -5.3033 24.6967 0
      vertex -3.75 23.5048 0
      vertex -9.78148 27.9209 0
    endloop
  endfacet
  facet normal 0 0 -1
    outer loop
      vertex -1.94114 22.7556 0
      vertex 5.75 0 0
      vertex -3.75 23.5048 0
    endloop
  endfacet
  facet normal 0 0 -1
    outer loop
      vertex 4 39.1055 0
      vertex 6.49519 33.75 0
      vertex 5.3033 35.3033 0
    endloop
  endfacet
  facet normal 0 0 -1
    outer loop
      vertex 4 39.1055 0
      vertex 5.3033 35.3033 0
      vertex 3.75 36.4952 0
    endloop
  endfacet
  facet normal 0 0 -1
    outer loop
      vertex 5 38.6603 0
      vertex 7.24444 31.9411 0
      vertex 6.49519 33.75 0
    endloop
  endfacet
  facet normal 0 0 -1
    outer loop
      vertex 2 45 0
      vertex 4 39.1055 0
      vertex 3.75 36.4952 0
    endloop
  endfacet
  facet normal 0 0 -1
    outer loop
      vertex 4 39.1055 0
      vertex 2 45 0
      vertex 2 46 0
    endloop
  endfacet
  facet normal 0 0 -1
    outer loop
      vertex -5.75 21.8847 0
      vertex 4.53756 -3.53172 0
      vertex 3.14495 -4.81371 0
    endloop
  endfacet
  facet normal 0 0 -1
    outer loop
      vertex -5.75 21.8847 0
      vertex 1.41154 -5.57405 0
      vertex -0.474831 -5.73036 0
    endloop
  endfacet
  facet normal 0 0 -1
    outer loop
      vertex 4 39.1055 0
      vertex 2 46 0
      vertex 4 46 0
    endloop
  endfacet
  facet normal 0 0 -1
    outer loop
      vertex 6.69131 37.4314 0
      vertex 7.24444 31.9411 0
      vertex 5 38.6603 0
    endloop
  endfacet
  facet normal 0 0 -1
    outer loop
      vertex -5.75 21.8847 0
      vertex 3.14495 -4.81371 0
      vertex 1.41154 -5.57405 0
    endloop
  endfacet
  facet normal 0 0 -1
    outer loop
      vertex -5.75 21.8847 0
      vertex 5.43845 -1.86702 0
      vertex 4.53756 -3.53172 0
    endloop
  endfacet
  facet normal 0 0 -1
    outer loop
      vertex -5.75 21.8847 0
      vertex 5.75 0 0
      vertex 5.43845 -1.86702 0
    endloop
  endfacet
  facet normal 0 0 -1
    outer loop
      vertex 7.24444 31.9411 0
      vertex 6.69131 37.4314 0
      vertex 7.5 30 0
    endloop
  endfacet
  facet normal 0 0 -1
    outer loop
      vertex 7.5 30 0
      vertex 6.69131 37.4314 0
      vertex 8.09017 35.8779 0
    endloop
  endfacet
  facet normal 0 0 -1
    outer loop
      vertex 7.5 30 0
      vertex 8.09017 35.8779 0
      vertex 9.13546 34.0674 0
    endloop
  endfacet
  facet normal 0 0 -1
    outer loop
      vertex 7.5 30 0
      vertex 9.13546 34.0674 0
      vertex 7.24444 28.0589 0
    endloop
  endfacet
  facet normal 0 0 -1
    outer loop
      vertex 7.24444 28.0589 0
      vertex 9.13546 34.0674 0
      vertex 9.78148 32.0791 0
    endloop
  endfacet
  facet normal 0 0 -1
    outer loop
      vertex 7.24444 28.0589 0
      vertex 9.78148 32.0791 0
      vertex 6.49519 26.25 0
    endloop
  endfacet
  facet normal 0 0 -1
    outer loop
      vertex 6.49519 26.25 0
      vertex 9.78148 32.0791 0
      vertex 10 30 0
    endloop
  endfacet
  facet normal 0 0 -1
    outer loop
      vertex 6.49519 26.25 0
      vertex 10 30 0
      vertex 5.3033 24.6967 0
    endloop
  endfacet
  facet normal 0 0 -1
    outer loop
      vertex 5.3033 24.6967 0
      vertex 10 30 0
      vertex 9.78148 27.9209 0
    endloop
  endfacet
  facet normal 0 0 -1
    outer loop
      vertex 5.3033 24.6967 0
      vertex 9.78148 27.9209 0
      vertex 3.75 23.5048 0
    endloop
  endfacet
  facet normal 0 0 -1
    outer loop
      vertex 3.75 23.5048 0
      vertex 9.78148 27.9209 0
      vertex 9.13546 25.9326 0
    endloop
  endfacet
  facet normal 0 0 -1
    outer loop
      vertex 3.75 23.5048 0
      vertex 9.13546 25.9326 0
      vertex 8.09017 24.1221 0
    endloop
  endfacet
  facet normal 0 0 -1
    outer loop
      vertex 3.75 23.5048 0
      vertex 8.09017 24.1221 0
      vertex 1.94114 22.7556 0
    endloop
  endfacet
  facet normal 0 0 -1
    outer loop
      vertex 1.94114 22.7556 0
      vertex 8.09017 24.1221 0
      vertex 6.69131 22.5686 0
    endloop
  endfacet
  facet normal 0 0 -1
    outer loop
      vertex 1.94114 22.7556 0
      vertex 6.69131 22.5686 0
      vertex 0 22.5 0
    endloop
  endfacet
  facet normal 0 0 -1
    outer loop
      vertex 0 22.5 0
      vertex 6.69131 22.5686 0
      vertex 5.75 21.8847 0
    endloop
  endfacet
  facet normal 0 0 -1
    outer loop
      vertex 0 22.5 0
      vertex 5.75 21.8847 0
      vertex 5.75 0 0
    endloop
  endfacet
  facet normal 0 0 -1
    outer loop
      vertex 0 22.5 0
      vertex 5.75 0 0
      vertex -1.94114 22.7556 0
    endloop
  endfacet
  facet normal 0 0 -1
    outer loop
      vertex -5.67158 0 0
      vertex -5.05697 -2.7367 0
      vertex -5.67158 -0.946419 0
    endloop
  endfacet
  facet normal 0 0 -1
    outer loop
      vertex -3.75 23.5048 0
      vertex 5.75 0 0
      vertex -5.75 21.8847 0
    endloop
  endfacet
  facet normal 0 0 -1
    outer loop
      vertex -3.75 23.5048 0
      vertex -5.75 21.8847 0
      vertex -9.78148 27.9209 0
    endloop
  endfacet
  facet normal 0 0 -1
    outer loop
      vertex -5.75 21.8847 0
      vertex -6.69131 22.5686 0
      vertex -9.78148 27.9209 0
    endloop
  endfacet
  facet normal 0 0 -1
    outer loop
      vertex -7.24444 31.9411 0
      vertex -9.78148 27.9209 0
      vertex -6.49519 33.75 0
    endloop
  endfacet
  facet normal 0 0 -1
    outer loop
      vertex 2 45 0
      vertex 3.75 36.4952 0
      vertex 2 37.2201 0
    endloop
  endfacet
  facet normal 0 0 -1
    outer loop
      vertex -5.75 21.8847 0
      vertex -0.474831 -5.73036 0
      vertex -2.30975 -5.2657 0
    endloop
  endfacet
  facet normal 0 0 -1
    outer loop
      vertex -5.75 21.8847 0
      vertex -2.30975 -5.2657 0
      vertex -3.89437 -4.23041 0
    endloop
  endfacet
  facet normal 0 0 -1
    outer loop
      vertex -5.75 21.8847 0
      vertex -3.89437 -4.23041 0
      vertex -5.05697 -2.7367 0
    endloop
  endfacet
  facet normal 0 0 -1
    outer loop
      vertex -5.75 21.8847 0
      vertex -5.05697 -2.7367 0
      vertex -5.67158 0 0
    endloop
  endfacet
  facet normal 0 0 -1
    outer loop
      vertex -5.75 21.8847 0
      vertex -5.67158 0 0
      vertex -5.75 0 0
    endloop
  endfacet
  facet normal 0 0 -1
    outer loop
      vertex -9.13546 25.9326 0
      vertex -9.78148 27.9209 0
      vertex -8.09017 24.1221 0
    endloop
  endfacet
  facet normal 0 0 -1
    outer loop
      vertex -8.09017 24.1221 0
      vertex -9.78148 27.9209 0
      vertex -6.69131 22.5686 0
    endloop
  endfacet
  facet normal -0.994522 0.104528 0
    outer loop
      vertex -10 30 0
      vertex -10 30 30
      vertex -9.78148 32.0791 0
    endloop
  endfacet
  facet normal -0.994522 0.104528 0
    outer loop
      vertex -9.78148 32.0791 0
      vertex -10 30 30
      vertex -9.78148 32.0791 30
    endloop
  endfacet
  facet normal -0.994522 -0.104528 0
    outer loop
      vertex -10 30 0
      vertex -9.78148 27.9209 0
      vertex -10 30 30
    endloop
  endfacet
  facet normal -0.994522 -0.104528 0
    outer loop
      vertex -10 30 30
      vertex -9.78148 27.9209 0
      vertex -9.78148 27.9209 30
    endloop
  endfacet
  facet normal -0.951057 -0.309017 0
    outer loop
      vertex -9.78148 27.9209 0
      vertex -9.13546 25.9326 0
      vertex -9.78148 27.9209 30
    endloop
  endfacet
  facet normal -0.951057 -0.309017 0
    outer loop
      vertex -9.78148 27.9209 30
      vertex -9.13546 25.9326 0
      vertex -9.13546 25.9326 30
    endloop
  endfacet
  facet normal -0.866025 -0.5 0
    outer loop
      vertex -9.13546 25.9326 0
      vertex -8.09017 24.1221 0
      vertex -9.13546 25.9326 30
    endloop
  endfacet
  facet normal -0.866025 -0.5 0
    outer loop
      vertex -9.13546 25.9326 30
      vertex -8.09017 24.1221 0
      vertex -8.09017 24.1221 30
    endloop
  endfacet
  facet normal -0.743145 -0.669131 0
    outer loop
      vertex -8.09017 24.1221 0
      vertex -6.69131 22.5686 0
      vertex -8.09017 24.1221 30
    endloop
  endfacet
  facet normal -0.743145 -0.669131 0
    outer loop
      vertex -8.09017 24.1221 30
      vertex -6.69131 22.5686 0
      vertex -6.69131 22.5686 30
    endloop
  endfacet
  facet normal -0.587785 -0.809017 0
    outer loop
      vertex -6.69131 22.5686 30
      vertex -6.69131 22.5686 0
      vertex -5.75 21.8847 0
    endloop
  endfacet
  facet normal -0.587785 -0.809017 0
    outer loop
      vertex -5 21.3397 5
      vertex -6.69131 22.5686 30
      vertex -5.75 21.8847 5
    endloop
  endfacet
  facet normal -0.587785 -0.809017 0
    outer loop
      vertex -5.75 21.8847 5
      vertex -6.69131 22.5686 30
      vertex -5.75 21.8847 0
    endloop
  endfacet
  facet normal -0.587785 -0.809017 0
    outer loop
      vertex -5 21.3397 30
      vertex -6.69131 22.5686 30
      vertex -5 21.3397 5
    endloop
  endfacet
  facet normal -1 0 0
    outer loop
      vertex -5.75 0 0
      vertex -5.75 0 5
      vertex -5.75 21.8847 0
    endloop
  endfacet
  facet normal -1 0 0
    outer loop
      vertex -5.75 21.8847 0
      vertex -5.75 0 5
      vertex -5.75 21.8847 5
    endloop
  endfacet
  facet normal 0 -1 0
    outer loop
      vertex -5.75 0 5
      vertex -5.75 0 0
      vertex -5.67158 0 0
    endloop
  endfacet
  facet normal 0 -1 0
    outer loop
      vertex -5.67158 0 5
      vertex -5.75 0 5
      vertex -5.67158 0 0
    endloop
  endfacet
  facet normal -1 0 0
    outer loop
      vertex -5.67158 -0.946419 0
      vertex -5.67158 -0.946419 50
      vertex -5.67158 0 0
    endloop
  endfacet
  facet normal -1 0 0
    outer loop
      vertex -5.67158 0 5
      vertex -5.67158 -0.946419 50
      vertex -5.67158 0.946419 50
    endloop
  endfacet
  facet normal -1 0 0
    outer loop
      vertex -5.67158 0 0
      vertex -5.67158 -0.946419 50
      vertex -5.67158 0 5
    endloop
  endfacet
  facet normal -1 0 0
    outer loop
      vertex -5.67158 0 5
      vertex -5.67158 0.946419 50
      vertex -5.67158 0.946419 5
    endloop
  endfacet
  facet normal -0.945817 -0.324699 0
    outer loop
      vertex -5.67158 -0.946419 0
      vertex -5.05697 -2.7367 0
      vertex -5.67158 -0.946419 50
    endloop
  endfacet
  facet normal -0.945817 -0.324699 0
    outer loop
      vertex -5.67158 -0.946419 50
      vertex -5.05697 -2.7367 0
      vertex -5.05697 -2.7367 50
    endloop
  endfacet
  facet normal -0.78914 -0.614213 0
    outer loop
      vertex -5.05697 -2.7367 0
      vertex -3.89437 -4.23041 0
      vertex -5.05697 -2.7367 50
    endloop
  endfacet
  facet normal -0.78914 -0.614213 0
    outer loop
      vertex -5.05697 -2.7367 50
      vertex -3.89437 -4.23041 0
      vertex -3.89437 -4.23041 50
    endloop
  endfacet
  facet normal -0.546949 -0.837166 0
    outer loop
      vertex -3.89437 -4.23041 50
      vertex -3.89437 -4.23041 0
      vertex -2.30975 -5.2657 0
    endloop
  endfacet
  facet normal -0.546949 -0.837166 0
    outer loop
      vertex -2.30975 -5.2657 50
      vertex -3.89437 -4.23041 50
      vertex -2.30975 -5.2657 0
    endloop
  endfacet
  facet normal -0.245485 -0.9694 0
    outer loop
      vertex -2.30975 -5.2657 50
      vertex -2.30975 -5.2657 0
      vertex -0.474831 -5.73036 0
    endloop
  endfacet
  facet normal -0.245485 -0.9694 0
    outer loop
      vertex -0.474831 -5.73036 50
      vertex -2.30975 -5.2657 50
      vertex -0.474831 -5.73036 0
    endloop
  endfacet
  facet normal 0.0825792 -0.996585 0
    outer loop
      vertex -0.474831 -5.73036 50
      vertex -0.474831 -5.73036 0
      vertex 1.41154 -5.57405 0
    endloop
  endfacet
  facet normal 0.0825792 -0.996585 0
    outer loop
      vertex 1.41154 -5.57405 50
      vertex -0.474831 -5.73036 50
      vertex 1.41154 -5.57405 0
    endloop
  endfacet
  facet normal 0.401696 -0.915773 0
    outer loop
      vertex 1.41154 -5.57405 50
      vertex 1.41154 -5.57405 0
      vertex 3.14495 -4.81371 0
    endloop
  endfacet
  facet normal 0.401696 -0.915773 0
    outer loop
      vertex 3.14495 -4.81371 50
      vertex 1.41154 -5.57405 50
      vertex 3.14495 -4.81371 0
    endloop
  endfacet
  facet normal 0.677282 -0.735724 0
    outer loop
      vertex 3.14495 -4.81371 50
      vertex 3.14495 -4.81371 0
      vertex 4.53756 -3.53172 0
    endloop
  endfacet
  facet normal 0.677282 -0.735724 0
    outer loop
      vertex 4.53756 -3.53172 50
      vertex 3.14495 -4.81371 50
      vertex 4.53756 -3.53172 0
    endloop
  endfacet
  facet normal 0.879474 -0.475947 0
    outer loop
      vertex 4.53756 -3.53172 50
      vertex 4.53756 -3.53172 0
      vertex 5.43845 -1.86702 0
    endloop
  endfacet
  facet normal 0.879474 -0.475947 0
    outer loop
      vertex 5.43845 -1.86702 50
      vertex 4.53756 -3.53172 50
      vertex 5.43845 -1.86702 0
    endloop
  endfacet
  facet normal 0.986361 -0.164595 0
    outer loop
      vertex 5.43845 -1.86702 50
      vertex 5.43845 -1.86702 0
      vertex 5.75 0 0
    endloop
  endfacet
  facet normal 0.986361 -0.164595 0
    outer loop
      vertex 5.75 0 50
      vertex 5.43845 -1.86702 50
      vertex 5.75 0 5
    endloop
  endfacet
  facet normal 0.986361 -0.164595 0
    outer loop
      vertex 5.75 0 5
      vertex 5.43845 -1.86702 50
      vertex 5.75 0 0
    endloop
  endfacet
  facet normal 1 0 0
    outer loop
      vertex 5.75 0 5
      vertex 5.75 0 0
      vertex 5.75 21.8847 0
    endloop
  endfacet
  facet normal 1 0 0
    outer loop
      vertex 5.75 21.8847 5
      vertex 5.75 0 5
      vertex 5.75 21.8847 0
    endloop
  endfacet
  facet normal 0.587785 -0.809017 0
    outer loop
      vertex 5 21.3397 30
      vertex 5 21.3397 5
      vertex 5.75 21.8847 5
    endloop
  endfacet
  facet normal 0.587785 -0.809017 0
    outer loop
      vertex 6.69131 22.5686 0
      vertex 5 21.3397 30
      vertex 5.75 21.8847 5
    endloop
  endfacet
  facet normal 0.587785 -0.809017 0
    outer loop
      vertex 5.75 21.8847 0
      vertex 6.69131 22.5686 0
      vertex 5.75 21.8847 5
    endloop
  endfacet
  facet normal 0.587785 -0.809017 0
    outer loop
      vertex 6.69131 22.5686 0
      vertex 6.69131 22.5686 30
      vertex 5 21.3397 30
    endloop
  endfacet
  facet normal 0.743145 -0.669131 0
    outer loop
      vertex 6.69131 22.5686 30
      vertex 6.69131 22.5686 0
      vertex 8.09017 24.1221 0
    endloop
  endfacet
  facet normal 0.743145 -0.669131 0
    outer loop
      vertex 8.09017 24.1221 30
      vertex 6.69131 22.5686 30
      vertex 8.09017 24.1221 0
    endloop
  endfacet
  facet normal 0.866025 -0.5 0
    outer loop
      vertex 8.09017 24.1221 30
      vertex 8.09017 24.1221 0
      vertex 9.13546 25.9326 0
    endloop
  endfacet
  facet normal 0.866025 -0.5 0
    outer loop
      vertex 9.13546 25.9326 30
      vertex 8.09017 24.1221 30
      vertex 9.13546 25.9326 0
    endloop
  endfacet
  facet normal 0.951057 -0.309017 0
    outer loop
      vertex 9.13546 25.9326 30
      vertex 9.13546 25.9326 0
      vertex 9.78148 27.9209 0
    endloop
  endfacet
  facet normal 0.951057 -0.309017 0
    outer loop
      vertex 9.78148 27.9209 30
      vertex 9.13546 25.9326 30
      vertex 9.78148 27.9209 0
    endloop
  endfacet
  facet normal 0.994522 -0.104528 0
    outer loop
      vertex 9.78148 27.9209 30
      vertex 9.78148 27.9209 0
      vertex 10 30 0
    endloop
  endfacet
  facet normal 0.994522 -0.104528 0
    outer loop
      vertex 10 30 30
      vertex 9.78148 27.9209 30
      vertex 10 30 0
    endloop
  endfacet
  facet normal 0.994522 0.104528 0
    outer loop
      vertex 10 30 0
      vertex 9.78148 32.0791 0
      vertex 9.78148 32.0791 30
    endloop
  endfacet
  facet normal 0.994522 0.104528 0
    outer loop
      vertex 10 30 30
      vertex 10 30 0
      vertex 9.78148 32.0791 30
    endloop
  endfacet
  facet normal 0.951057 0.309017 0
    outer loop
      vertex 9.78148 32.0791 0
      vertex 9.13546 34.0674 0
      vertex 9.13546 34.0674 30
    endloop
  endfacet
  facet normal 0.951057 0.309017 0
    outer loop
      vertex 9.78148 32.0791 30
      vertex 9.78148 32.0791 0
      vertex 9.13546 34.0674 30
    endloop
  endfacet
  facet normal 0.866025 0.5 0
    outer loop
      vertex 9.13546 34.0674 0
      vertex 8.09017 35.8779 0
      vertex 8.09017 35.8779 30
    endloop
  endfacet
  facet normal 0.866025 0.5 0
    outer loop
      vertex 9.13546 34.0674 30
      vertex 9.13546 34.0674 0
      vertex 8.09017 35.8779 30
    endloop
  endfacet
  facet normal 0.743145 0.669131 0
    outer loop
      vertex 8.09017 35.8779 0
      vertex 6.69131 37.4314 0
      vertex 6.69131 37.4314 30
    endloop
  endfacet
  facet normal 0.743145 0.669131 0
    outer loop
      vertex 8.09017 35.8779 30
      vertex 8.09017 35.8779 0
      vertex 6.69131 37.4314 30
    endloop
  endfacet
  facet normal 0.587785 0.809017 0
    outer loop
      vertex 5 38.6603 0
      vertex 5 38.6603 30
      vertex 6.69131 37.4314 0
    endloop
  endfacet
  facet normal 0.587785 0.809017 0
    outer loop
      vertex 6.69131 37.4314 0
      vertex 5 38.6603 30
      vertex 6.69131 37.4314 30
    endloop
  endfacet
  facet normal 0.406737 0.913545 0
    outer loop
      vertex 4 39.1055 0
      vertex 4 39.1055 30
      vertex 5 38.6603 0
    endloop
  endfacet
  facet normal 0.406737 0.913545 0
    outer loop
      vertex 5 38.6603 0
      vertex 4 39.1055 30
      vertex 5 38.6603 30
    endloop
  endfacet
  facet normal 1 0 0
    outer loop
      vertex 4 40.7865 4.11832
      vertex 4 39.1055 0
      vertex 4 46 0
    endloop
  endfacet
  facet normal 1 0 0
    outer loop
      vertex 4 42.4635 3.57342
      vertex 4 40.7865 4.11832
      vertex 4 46 0
    endloop
  endfacet
  facet normal 1 0 0
    outer loop
      vertex 4 39.1055 30
      vertex 4 39.1055 0
      vertex 4 40.7865 4.11832
    endloop
  endfacet
  facet normal 1 0 0
    outer loop
      vertex 4 39.1055 30
      vertex 4 40.7865 4.11832
      vertex 4 40.7865 5.88168
    endloop
  endfacet
  facet normal 1 0 0
    outer loop
      vertex 4 42.4635 13.5734
      vertex 4 42.4635 6.42659
      vertex 4 43.5 5
    endloop
  endfacet
  facet normal 1 0 0
    outer loop
      vertex 4 40.7865 14.1183
      vertex 4 40.7865 5.88168
      vertex 4 42.4635 6.42659
    endloop
  endfacet
  facet normal 1 0 0
    outer loop
      vertex 4 42.4635 13.5734
      vertex 4 43.5 5
      vertex 4 46 0
    endloop
  endfacet
  facet normal 1 0 0
    outer loop
      vertex 4 40.7865 15.8817
      vertex 4 42.4635 16.4266
      vertex 4 39.1055 30
    endloop
  endfacet
  facet normal 1 0 0
    outer loop
      vertex 4 39.1055 30
      vertex 4 40.7865 5.88168
      vertex 4 40.7865 14.1183
    endloop
  endfacet
  facet normal 1 0 0
    outer loop
      vertex 4 39.1055 30
      vertex 4 40.7865 14.1183
      vertex 4 40.7865 15.8817
    endloop
  endfacet
  facet normal 1 0 0
    outer loop
      vertex 4 42.4635 26.4266
      vertex 4 43.5 25
      vertex 4 46 30
    endloop
  endfacet
  facet normal 1 0 0
    outer loop
      vertex 4 40.7865 24.1183
      vertex 4 39.1055 30
      vertex 4 42.4635 16.4266
    endloop
  endfacet
  facet normal 1 0 0
    outer loop
      vertex 4 46 30
      vertex 4 43.5 15
      vertex 4 46 0
    endloop
  endfacet
  facet normal 1 0 0
    outer loop
      vertex 4 46 30
      vertex 4 42.4635 16.4266
      vertex 4 43.5 15
    endloop
  endfacet
  facet normal 1 0 0
    outer loop
      vertex 4 43.5 15
      vertex 4 42.4635 13.5734
      vertex 4 46 0
    endloop
  endfacet
  facet normal 1 0 0
    outer loop
      vertex 4 42.4635 23.5734
      vertex 4 40.7865 24.1183
      vertex 4 42.4635 16.4266
    endloop
  endfacet
  facet normal 1 0 0
    outer loop
      vertex 4 40.7865 25.8817
      vertex 4 39.1055 30
      vertex 4 40.7865 24.1183
    endloop
  endfacet
  facet normal 1 0 0
    outer loop
      vertex 4 46 30
      vertex 4 39.1055 30
      vertex 4 40.7865 25.8817
    endloop
  endfacet
  facet normal 1 0 0
    outer loop
      vertex 4 46 30
      vertex 4 40.7865 25.8817
      vertex 4 42.4635 26.4266
    endloop
  endfacet
  facet normal 1 0 0
    outer loop
      vertex 4 46 30
      vertex 4 43.5 25
      vertex 4 42.4635 16.4266
    endloop
  endfacet
  facet normal 1 0 0
    outer loop
      vertex 4 43.5 25
      vertex 4 42.4635 23.5734
      vertex 4 42.4635 16.4266
    endloop
  endfacet
  facet normal 1 0 0
    outer loop
      vertex 4 43.5 5
      vertex 4 42.4635 3.57342
      vertex 4 46 0
    endloop
  endfacet
  facet normal 1 0 0
    outer loop
      vertex 4 42.4635 13.5734
      vertex 4 40.7865 14.1183
      vertex 4 42.4635 6.42659
    endloop
  endfacet
  facet normal 0 1 0
    outer loop
      vertex 2 46 0
      vertex 2 46 30
      vertex 4 46 0
    endloop
  endfacet
  facet normal 0 1 0
    outer loop
      vertex 4 46 0
      vertex 2 46 30
      vertex 4 46 30
    endloop
  endfacet
  facet normal -1 0 0
    outer loop
      vertex 2 45 0
      vertex 2 45 30
      vertex 2 46 0
    endloop
  endfacet
  facet normal -1 0 0
    outer loop
      vertex 2 46 0
      vertex 2 45 30
      vertex 2 46 30
    endloop
  endfacet
  facet normal -1 0 0
    outer loop
      vertex 2 40.7865 14.1183
      vertex 2 37.2201 30
      vertex 2 40.7865 15.8817
    endloop
  endfacet
  facet normal -1 0 0
    outer loop
      vertex 2 40.7865 25.8817
      vertex 2 37.2201 30
      vertex 2 45 30
    endloop
  endfacet
  facet normal -1 0 0
    outer loop
      vertex 2 37.2201 0
      vertex 2 37.2201 30
      vertex 2 40.7865 5.88168
    endloop
  endfacet
  facet normal -1 0 0
    outer loop
      vertex 2 42.4635 16.4266
      vertex 2 45 30
      vertex 2 43.5 15
    endloop
  endfacet
  facet normal -1 0 0
    outer loop
      vertex 2 37.2201 0
      vertex 2 40.7865 5.88168
      vertex 2 40.7865 4.11832
    endloop
  endfacet
  facet normal -1 0 0
    outer loop
      vertex 2 37.2201 0
      vertex 2 40.7865 4.11832
      vertex 2 45 0
    endloop
  endfacet
  facet normal -1 0 0
    outer loop
      vertex 2 42.4635 3.57342
      vertex 2 45 0
      vertex 2 40.7865 4.11832
    endloop
  endfacet
  facet normal -1 0 0
    outer loop
      vertex 2 40.7865 15.8817
      vertex 2 37.2201 30
      vertex 2 42.4635 16.4266
    endloop
  endfacet
  facet normal -1 0 0
    outer loop
      vertex 2 42.4635 13.5734
      vertex 2 45 0
      vertex 2 43.5 5
    endloop
  endfacet
  facet normal -1 0 0
    outer loop
      vertex 2 42.4635 3.57342
      vertex 2 43.5 5
      vertex 2 45 0
    endloop
  endfacet
  facet normal -1 0 0
    outer loop
      vertex 2 42.4635 13.5734
      vertex 2 43.5 5
      vertex 2 40.7865 14.1183
    endloop
  endfacet
  facet normal -1 0 0
    outer loop
      vertex 2 42.4635 6.42659
      vertex 2 37.2201 30
      vertex 2 40.7865 14.1183
    endloop
  endfacet
  facet normal -1 0 0
    outer loop
      vertex 2 42.4635 6.42659
      vertex 2 40.7865 14.1183
      vertex 2 43.5 5
    endloop
  endfacet
  facet normal -1 0 0
    outer loop
      vertex 2 45 0
      vertex 2 42.4635 13.5734
      vertex 2 43.5 15
    endloop
  endfacet
  facet normal -1 0 0
    outer loop
      vertex 2 45 0
      vertex 2 43.5 15
      vertex 2 45 30
    endloop
  endfacet
  facet normal -1 0 0
    outer loop
      vertex 2 42.4635 23.5734
      vertex 2 42.4635 16.4266
      vertex 2 40.7865 24.1183
    endloop
  endfacet
  facet normal -1 0 0
    outer loop
      vertex 2 40.7865 24.1183
      vertex 2 37.2201 30
      vertex 2 40.7865 25.8817
    endloop
  endfacet
  facet normal -1 0 0
    outer loop
      vertex 2 42.4635 26.4266
      vertex 2 40.7865 25.8817
      vertex 2 45 30
    endloop
  endfacet
  facet normal -1 0 0
    outer loop
      vertex 2 42.4635 16.4266
      vertex 2 37.2201 30
      vertex 2 40.7865 24.1183
    endloop
  endfacet
  facet normal -1 0 0
    outer loop
      vertex 2 42.4635 26.4266
      vertex 2 45 30
      vertex 2 43.5 25
    endloop
  endfacet
  facet normal -1 0 0
    outer loop
      vertex 2 42.4635 16.4266
      vertex 2 42.4635 23.5734
      vertex 2 43.5 25
    endloop
  endfacet
  facet normal -1 0 0
    outer loop
      vertex 2 42.4635 16.4266
      vertex 2 43.5 25
      vertex 2 45 30
    endloop
  endfacet
  facet normal -1 0 0
    outer loop
      vertex 2 40.7865 5.88168
      vertex 2 37.2201 30
      vertex 2 42.4635 6.42659
    endloop
  endfacet
  facet normal -0.382683 -0.92388 0
    outer loop
      vertex 3.75 36.4952 0
      vertex 3.75 36.4952 30
      vertex 2 37.2201 30
    endloop
  endfacet
  facet normal -0.382683 -0.92388 0
    outer loop
      vertex 2 37.2201 0
      vertex 3.75 36.4952 0
      vertex 2 37.2201 30
    endloop
  endfacet
  facet normal -0.608762 -0.793353 0
    outer loop
      vertex 5.3033 35.3033 0
      vertex 5.3033 35.3033 30
      vertex 3.75 36.4952 30
    endloop
  endfacet
  facet normal -0.608762 -0.793353 0
    outer loop
      vertex 3.75 36.4952 0
      vertex 5.3033 35.3033 0
      vertex 3.75 36.4952 30
    endloop
  endfacet
  facet normal -0.793353 -0.608762 0
    outer loop
      vertex 6.49519 33.75 30
      vertex 5.3033 35.3033 30
      vertex 6.49519 33.75 0
    endloop
  endfacet
  facet normal -0.793353 -0.608762 0
    outer loop
      vertex 6.49519 33.75 0
      vertex 5.3033 35.3033 30
      vertex 5.3033 35.3033 0
    endloop
  endfacet
  facet normal -0.92388 -0.382683 0
    outer loop
      vertex 7.24444 31.9411 30
      vertex 6.49519 33.75 30
      vertex 7.24444 31.9411 0
    endloop
  endfacet
  facet normal -0.92388 -0.382683 0
    outer loop
      vertex 7.24444 31.9411 0
      vertex 6.49519 33.75 30
      vertex 6.49519 33.75 0
    endloop
  endfacet
  facet normal -0.991445 -0.130526 0
    outer loop
      vertex 7.5 30 30
      vertex 7.24444 31.9411 30
      vertex 7.5 30 0
    endloop
  endfacet
  facet normal -0.991445 -0.130526 0
    outer loop
      vertex 7.5 30 0
      vertex 7.24444 31.9411 30
      vertex 7.24444 31.9411 0
    endloop
  endfacet
  facet normal -0.991445 0.130526 0
    outer loop
      vertex 7.5 30 30
      vertex 7.5 30 0
      vertex 7.24444 28.0589 30
    endloop
  endfacet
  facet normal -0.991445 0.130526 0
    outer loop
      vertex 7.24444 28.0589 30
      vertex 7.5 30 0
      vertex 7.24444 28.0589 0
    endloop
  endfacet
  facet normal -0.92388 0.382683 0
    outer loop
      vertex 7.24444 28.0589 30
      vertex 7.24444 28.0589 0
      vertex 6.49519 26.25 30
    endloop
  endfacet
  facet normal -0.92388 0.382683 0
    outer loop
      vertex 6.49519 26.25 30
      vertex 7.24444 28.0589 0
      vertex 6.49519 26.25 0
    endloop
  endfacet
  facet normal -0.793353 0.608762 0
    outer loop
      vertex 6.49519 26.25 30
      vertex 6.49519 26.25 0
      vertex 5.3033 24.6967 30
    endloop
  endfacet
  facet normal -0.793353 0.608762 0
    outer loop
      vertex 5.3033 24.6967 30
      vertex 6.49519 26.25 0
      vertex 5.3033 24.6967 0
    endloop
  endfacet
  facet normal -0.608762 0.793353 0
    outer loop
      vertex 5.3033 24.6967 30
      vertex 5.3033 24.6967 0
      vertex 3.75 23.5048 30
    endloop
  endfacet
  facet normal -0.608762 0.793353 0
    outer loop
      vertex 3.75 23.5048 30
      vertex 5.3033 24.6967 0
      vertex 3.75 23.5048 0
    endloop
  endfacet
  facet normal -0.382683 0.92388 0
    outer loop
      vertex 3.75 23.5048 30
      vertex 3.75 23.5048 0
      vertex 1.94114 22.7556 30
    endloop
  endfacet
  facet normal -0.382683 0.92388 0
    outer loop
      vertex 1.94114 22.7556 30
      vertex 3.75 23.5048 0
      vertex 1.94114 22.7556 0
    endloop
  endfacet
  facet normal -0.130526 0.991445 0
    outer loop
      vertex 1.94114 22.7556 30
      vertex 1.94114 22.7556 0
      vertex 0 22.5 30
    endloop
  endfacet
  facet normal -0.130526 0.991445 0
    outer loop
      vertex 0 22.5 30
      vertex 1.94114 22.7556 0
      vertex 0 22.5 0
    endloop
  endfacet
  facet normal 0.130526 0.991445 0
    outer loop
      vertex 0 22.5 30
      vertex 0 22.5 0
      vertex -1.94114 22.7556 30
    endloop
  endfacet
  facet normal 0.130526 0.991445 0
    outer loop
      vertex -1.94114 22.7556 30
      vertex 0 22.5 0
      vertex -1.94114 22.7556 0
    endloop
  endfacet
  facet normal 0.382683 0.92388 0
    outer loop
      vertex -1.94114 22.7556 30
      vertex -1.94114 22.7556 0
      vertex -3.75 23.5048 30
    endloop
  endfacet
  facet normal 0.382683 0.92388 0
    outer loop
      vertex -3.75 23.5048 30
      vertex -1.94114 22.7556 0
      vertex -3.75 23.5048 0
    endloop
  endfacet
  facet normal 0.608762 0.793353 0
    outer loop
      vertex -3.75 23.5048 30
      vertex -3.75 23.5048 0
      vertex -5.3033 24.6967 30
    endloop
  endfacet
  facet normal 0.608762 0.793353 0
    outer loop
      vertex -5.3033 24.6967 30
      vertex -3.75 23.5048 0
      vertex -5.3033 24.6967 0
    endloop
  endfacet
  facet normal 0.793353 0.608762 0
    outer loop
      vertex -6.49519 26.25 30
      vertex -5.3033 24.6967 30
      vertex -5.3033 24.6967 0
    endloop
  endfacet
  facet normal 0.793353 0.608762 0
    outer loop
      vertex -6.49519 26.25 0
      vertex -6.49519 26.25 30
      vertex -5.3033 24.6967 0
    endloop
  endfacet
  facet normal 0.92388 0.382683 0
    outer loop
      vertex -7.24444 28.0589 30
      vertex -6.49519 26.25 30
      vertex -6.49519 26.25 0
    endloop
  endfacet
  facet normal 0.92388 0.382683 0
    outer loop
      vertex -7.24444 28.0589 0
      vertex -7.24444 28.0589 30
      vertex -6.49519 26.25 0
    endloop
  endfacet
  facet normal 0.991445 0.130526 0
    outer loop
      vertex -7.5 30 30
      vertex -7.24444 28.0589 30
      vertex -7.24444 28.0589 0
    endloop
  endfacet
  facet normal 0.991445 0.130526 0
    outer loop
      vertex -7.5 30 0
      vertex -7.5 30 30
      vertex -7.24444 28.0589 0
    endloop
  endfacet
  facet normal 0.991445 -0.130526 0
    outer loop
      vertex -7.24444 31.9411 0
      vertex -7.24444 31.9411 30
      vertex -7.5 30 30
    endloop
  endfacet
  facet normal 0.991445 -0.130526 0
    outer loop
      vertex -7.5 30 0
      vertex -7.24444 31.9411 0
      vertex -7.5 30 30
    endloop
  endfacet
  facet normal 0.92388 -0.382683 0
    outer loop
      vertex -6.49519 33.75 0
      vertex -6.49519 33.75 30
      vertex -7.24444 31.9411 30
    endloop
  endfacet
  facet normal 0.92388 -0.382683 0
    outer loop
      vertex -7.24444 31.9411 0
      vertex -6.49519 33.75 0
      vertex -7.24444 31.9411 30
    endloop
  endfacet
  facet normal 0.793353 -0.608762 0
    outer loop
      vertex -5.3033 35.3033 0
      vertex -5.3033 35.3033 30
      vertex -6.49519 33.75 30
    endloop
  endfacet
  facet normal 0.793353 -0.608762 0
    outer loop
      vertex -6.49519 33.75 0
      vertex -5.3033 35.3033 0
      vertex -6.49519 33.75 30
    endloop
  endfacet
  facet normal 0.608762 -0.793353 0
    outer loop
      vertex -3.75 36.4952 0
      vertex -3.75 36.4952 30
      vertex -5.3033 35.3033 30
    endloop
  endfacet
  facet normal 0.608762 -0.793353 0
    outer loop
      vertex -5.3033 35.3033 0
      vertex -3.75 36.4952 0
      vertex -5.3033 35.3033 30
    endloop
  endfacet
  facet normal 0.382683 -0.92388 0
    outer loop
      vertex -2 37.2201 0
      vertex -2 37.2201 30
      vertex -3.75 36.4952 30
    endloop
  endfacet
  facet normal 0.382683 -0.92388 0
    outer loop
      vertex -3.75 36.4952 0
      vertex -2 37.2201 0
      vertex -3.75 36.4952 30
    endloop
  endfacet
  facet normal 1 0 0
    outer loop
      vertex -2 40.7865 4.11832
      vertex -2 37.2201 0
      vertex -2 45 0
    endloop
  endfacet
  facet normal 1 0 0
    outer loop
      vertex -2 37.2201 30
      vertex -2 37.2201 0
      vertex -2 40.7865 4.11832
    endloop
  endfacet
  facet normal 1 0 0
    outer loop
      vertex -2 43.5 5
      vertex -2 42.4635 3.57342
      vertex -2 45 0
    endloop
  endfacet
  facet normal 1 0 0
    outer loop
      vertex -2 37.2201 30
      vertex -2 40.7865 4.11832
      vertex -2 40.7865 5.88168
    endloop
  endfacet
  facet normal 1 0 0
    outer loop
      vertex -2 43.5 15
      vertex -2 42.4635 13.5734
      vertex -2 45 0
    endloop
  endfacet
  facet normal 1 0 0
    outer loop
      vertex -2 37.2201 30
      vertex -2 40.7865 5.88168
      vertex -2 42.4635 6.42659
    endloop
  endfacet
  facet normal 1 0 0
    outer loop
      vertex -2 40.7865 14.1183
      vertex -2 42.4635 6.42659
      vertex -2 43.5 5
    endloop
  endfacet
  facet normal 1 0 0
    outer loop
      vertex -2 40.7865 14.1183
      vertex -2 40.7865 15.8817
      vertex -2 37.2201 30
    endloop
  endfacet
  facet normal 1 0 0
    outer loop
      vertex -2 37.2201 30
      vertex -2 42.4635 6.42659
      vertex -2 40.7865 14.1183
    endloop
  endfacet
  facet normal 1 0 0
    outer loop
      vertex -2 40.7865 15.8817
      vertex -2 42.4635 16.4266
      vertex -2 37.2201 30
    endloop
  endfacet
  facet normal 1 0 0
    outer loop
      vertex -2 42.4635 23.5734
      vertex -2 40.7865 24.1183
      vertex -2 42.4635 16.4266
    endloop
  endfacet
  facet normal 1 0 0
    outer loop
      vertex -2 40.7865 24.1183
      vertex -2 37.2201 30
      vertex -2 42.4635 16.4266
    endloop
  endfacet
  facet normal 1 0 0
    outer loop
      vertex -2 45 30
      vertex -2 43.5 15
      vertex -2 45 0
    endloop
  endfacet
  facet normal 1 0 0
    outer loop
      vertex -2 45 30
      vertex -2 42.4635 16.4266
      vertex -2 43.5 15
    endloop
  endfacet
  facet normal 1 0 0
    outer loop
      vertex -2 40.7865 25.8817
      vertex -2 37.2201 30
      vertex -2 40.7865 24.1183
    endloop
  endfacet
  facet normal 1 0 0
    outer loop
      vertex -2 45 30
      vertex -2 37.2201 30
      vertex -2 40.7865 25.8817
    endloop
  endfacet
  facet normal 1 0 0
    outer loop
      vertex -2 40.7865 25.8817
      vertex -2 42.4635 26.4266
      vertex -2 45 30
    endloop
  endfacet
  facet normal 1 0 0
    outer loop
      vertex -2 45 30
      vertex -2 43.5 25
      vertex -2 42.4635 16.4266
    endloop
  endfacet
  facet normal 1 0 0
    outer loop
      vertex -2 45 30
      vertex -2 42.4635 26.4266
      vertex -2 43.5 25
    endloop
  endfacet
  facet normal 1 0 0
    outer loop
      vertex -2 43.5 25
      vertex -2 42.4635 23.5734
      vertex -2 42.4635 16.4266
    endloop
  endfacet
  facet normal 1 0 0
    outer loop
      vertex -2 42.4635 3.57342
      vertex -2 40.7865 4.11832
      vertex -2 45 0
    endloop
  endfacet
  facet normal 1 0 0
    outer loop
      vertex -2 42.4635 13.5734
      vertex -2 43.5 5
      vertex -2 45 0
    endloop
  endfacet
  facet normal 1 0 0
    outer loop
      vertex -2 42.4635 13.5734
      vertex -2 40.7865 14.1183
      vertex -2 43.5 5
    endloop
  endfacet
  facet normal 1 0 0
    outer loop
      vertex -2 45 30
      vertex -2 45 0
      vertex -2 46 0
    endloop
  endfacet
  facet normal 1 0 0
    outer loop
      vertex -2 46 30
      vertex -2 45 30
      vertex -2 46 0
    endloop
  endfacet
  facet normal 0 1 0
    outer loop
      vertex -4 46 0
      vertex -4 46 30
      vertex -2 46 0
    endloop
  endfacet
  facet normal 0 1 0
    outer loop
      vertex -2 46 0
      vertex -4 46 30
      vertex -2 46 30
    endloop
  endfacet
  facet normal -1 0 0
    outer loop
      vertex -4 40.7865 25.8817
      vertex -4 39.1055 30
      vertex -4 46 30
    endloop
  endfacet
  facet normal -1 0 0
    outer loop
      vertex -4 39.1055 0
      vertex -4 39.1055 30
      vertex -4 40.7865 5.88168
    endloop
  endfacet
  facet normal -1 0 0
    outer loop
      vertex -4 39.1055 0
      vertex -4 40.7865 5.88168
      vertex -4 40.7865 4.11832
    endloop
  endfacet
  facet normal -1 0 0
    outer loop
      vertex -4 39.1055 0
      vertex -4 40.7865 4.11832
      vertex -4 46 0
    endloop
  endfacet
  facet normal -1 0 0
    outer loop
      vertex -4 40.7865 4.11832
      vertex -4 42.4635 3.57342
      vertex -4 46 0
    endloop
  endfacet
  facet normal -1 0 0
    outer loop
      vertex -4 40.7865 15.8817
      vertex -4 39.1055 30
      vertex -4 42.4635 16.4266
    endloop
  endfacet
  facet normal -1 0 0
    outer loop
      vertex -4 42.4635 13.5734
      vertex -4 42.4635 6.42659
      vertex -4 40.7865 14.1183
    endloop
  endfacet
  facet normal -1 0 0
    outer loop
      vertex -4 40.7865 5.88168
      vertex -4 39.1055 30
      vertex -4 40.7865 15.8817
    endloop
  endfacet
  facet normal -1 0 0
    outer loop
      vertex -4 40.7865 5.88168
      vertex -4 40.7865 15.8817
      vertex -4 40.7865 14.1183
    endloop
  endfacet
  facet normal -1 0 0
    outer loop
      vertex -4 40.7865 5.88168
      vertex -4 40.7865 14.1183
      vertex -4 42.4635 6.42659
    endloop
  endfacet
  facet normal -1 0 0
    outer loop
      vertex -4 43.5 5
      vertex -4 42.4635 13.5734
      vertex -4 46 0
    endloop
  endfacet
  facet normal -1 0 0
    outer loop
      vertex -4 42.4635 23.5734
      vertex -4 43.5 15
      vertex -4 40.7865 24.1183
    endloop
  endfacet
  facet normal -1 0 0
    outer loop
      vertex -4 46 0
      vertex -4 43.5 15
      vertex -4 46 30
    endloop
  endfacet
  facet normal -1 0 0
    outer loop
      vertex -4 40.7865 24.1183
      vertex -4 39.1055 30
      vertex -4 40.7865 25.8817
    endloop
  endfacet
  facet normal -1 0 0
    outer loop
      vertex -4 42.4635 26.4266
      vertex -4 40.7865 25.8817
      vertex -4 46 30
    endloop
  endfacet
  facet normal -1 0 0
    outer loop
      vertex -4 42.4635 16.4266
      vertex -4 39.1055 30
      vertex -4 40.7865 24.1183
    endloop
  endfacet
  facet normal -1 0 0
    outer loop
      vertex -4 42.4635 16.4266
      vertex -4 40.7865 24.1183
      vertex -4 43.5 15
    endloop
  endfacet
  facet normal -1 0 0
    outer loop
      vertex -4 42.4635 26.4266
      vertex -4 46 30
      vertex -4 43.5 25
    endloop
  endfacet
  facet normal -1 0 0
    outer loop
      vertex -4 43.5 15
      vertex -4 42.4635 23.5734
      vertex -4 43.5 25
    endloop
  endfacet
  facet normal -1 0 0
    outer loop
      vertex -4 43.5 15
      vertex -4 43.5 25
      vertex -4 46 30
    endloop
  endfacet
  facet normal -1 0 0
    outer loop
      vertex -4 43.5 5
      vertex -4 46 0
      vertex -4 42.4635 3.57342
    endloop
  endfacet
  facet normal -1 0 0
    outer loop
      vertex -4 42.4635 13.5734
      vertex -4 43.5 5
      vertex -4 42.4635 6.42659
    endloop
  endfacet
  facet normal -1 0 0
    outer loop
      vertex -4 43.5 15
      vertex -4 46 0
      vertex -4 42.4635 13.5734
    endloop
  endfacet
  facet normal -0.406737 0.913545 0
    outer loop
      vertex -5 38.6603 0
      vertex -5 38.6603 30
      vertex -4 39.1055 0
    endloop
  endfacet
  facet normal -0.406737 0.913545 0
    outer loop
      vertex -4 39.1055 0
      vertex -5 38.6603 30
      vertex -4 39.1055 30
    endloop
  endfacet
  facet normal -0.587785 0.809017 0
    outer loop
      vertex -6.69131 37.4314 0
      vertex -6.69131 37.4314 30
      vertex -5 38.6603 0
    endloop
  endfacet
  facet normal -0.587785 0.809017 0
    outer loop
      vertex -5 38.6603 0
      vertex -6.69131 37.4314 30
      vertex -5 38.6603 30
    endloop
  endfacet
  facet normal -0.743145 0.669131 0
    outer loop
      vertex -8.09017 35.8779 0
      vertex -8.09017 35.8779 30
      vertex -6.69131 37.4314 0
    endloop
  endfacet
  facet normal -0.743145 0.669131 0
    outer loop
      vertex -6.69131 37.4314 0
      vertex -8.09017 35.8779 30
      vertex -6.69131 37.4314 30
    endloop
  endfacet
  facet normal -0.866025 0.5 0
    outer loop
      vertex -9.13546 34.0674 0
      vertex -9.13546 34.0674 30
      vertex -8.09017 35.8779 0
    endloop
  endfacet
  facet normal -0.866025 0.5 0
    outer loop
      vertex -8.09017 35.8779 0
      vertex -9.13546 34.0674 30
      vertex -8.09017 35.8779 30
    endloop
  endfacet
  facet normal -0.951057 0.309017 0
    outer loop
      vertex -9.78148 32.0791 0
      vertex -9.78148 32.0791 30
      vertex -9.13546 34.0674 0
    endloop
  endfacet
  facet normal -0.951057 0.309017 0
    outer loop
      vertex -9.13546 34.0674 0
      vertex -9.78148 32.0791 30
      vertex -9.13546 34.0674 30
    endloop
  endfacet
  facet normal 0 0 1
    outer loop
      vertex -9.78148 32.0791 30
      vertex -10 30 30
      vertex -9.78148 27.9209 30
    endloop
  endfacet
  facet normal 0 0 1
    outer loop
      vertex -8.09017 24.1221 30
      vertex -9.78148 32.0791 30
      vertex -9.13546 25.9326 30
    endloop
  endfacet
  facet normal 0 0 1
    outer loop
      vertex -9.13546 25.9326 30
      vertex -9.78148 32.0791 30
      vertex -9.78148 27.9209 30
    endloop
  endfacet
  facet normal 0 0 1
    outer loop
      vertex -6.69131 22.5686 30
      vertex -9.78148 32.0791 30
      vertex -8.09017 24.1221 30
    endloop
  endfacet
  facet normal 0 0 1
    outer loop
      vertex -5 21.3397 30
      vertex -9.78148 32.0791 30
      vertex -6.69131 22.5686 30
    endloop
  endfacet
  facet normal 0 0 1
    outer loop
      vertex -6.49519 26.25 30
      vertex -9.78148 32.0791 30
      vertex -5 21.3397 30
    endloop
  endfacet
  facet normal 0 0 1
    outer loop
      vertex -6.49519 26.25 30
      vertex -7.24444 28.0589 30
      vertex -9.78148 32.0791 30
    endloop
  endfacet
  facet normal 0 0 1
    outer loop
      vertex -5.3033 24.6967 30
      vertex -6.49519 26.25 30
      vertex -3.09017 20.4894 30
    endloop
  endfacet
  facet normal 0 0 1
    outer loop
      vertex -1.94114 22.7556 30
      vertex -3.75 23.5048 30
      vertex -1.04529 20.0548 30
    endloop
  endfacet
  facet normal 0 0 1
    outer loop
      vertex 3.75 23.5048 30
      vertex 1.94114 22.7556 30
      vertex 5 21.3397 30
    endloop
  endfacet
  facet normal 0 0 1
    outer loop
      vertex 5.3033 24.6967 30
      vertex 3.75 23.5048 30
      vertex 6.69131 22.5686 30
    endloop
  endfacet
  facet normal 0 0 1
    outer loop
      vertex 6.49519 26.25 30
      vertex 5.3033 24.6967 30
      vertex 8.09017 24.1221 30
    endloop
  endfacet
  facet normal 0 0 1
    outer loop
      vertex 7.24444 28.0589 30
      vertex 6.49519 26.25 30
      vertex 9.13546 25.9326 30
    endloop
  endfacet
  facet normal 0 0 1
    outer loop
      vertex 7.5 30 30
      vertex 7.24444 28.0589 30
      vertex 9.78148 27.9209 30
    endloop
  endfacet
  facet normal 0 0 1
    outer loop
      vertex 6.49519 33.75 30
      vertex 7.24444 31.9411 30
      vertex 9.78148 32.0791 30
    endloop
  endfacet
  facet normal 0 0 1
    outer loop
      vertex 7.24444 31.9411 30
      vertex 7.5 30 30
      vertex 10 30 30
    endloop
  endfacet
  facet normal 0 0 1
    outer loop
      vertex 5.3033 35.3033 30
      vertex 9.13546 34.0674 30
      vertex 8.09017 35.8779 30
    endloop
  endfacet
  facet normal 0 0 1
    outer loop
      vertex 3.75 36.4952 30
      vertex 5.3033 35.3033 30
      vertex 6.69131 37.4314 30
    endloop
  endfacet
  facet normal 0 0 1
    outer loop
      vertex -6.69131 37.4314 30
      vertex -8.09017 35.8779 30
      vertex -9.78148 32.0791 30
    endloop
  endfacet
  facet normal 0 0 1
    outer loop
      vertex 2 46 30
      vertex 2 45 30
      vertex 4 46 30
    endloop
  endfacet
  facet normal 0 0 1
    outer loop
      vertex 5 38.6603 30
      vertex 2 37.2201 30
      vertex 6.69131 37.4314 30
    endloop
  endfacet
  facet normal 0 0 1
    outer loop
      vertex -3.75 36.4952 30
      vertex -4 39.1055 30
      vertex -9.78148 32.0791 30
    endloop
  endfacet
  facet normal 0 0 1
    outer loop
      vertex 2 37.2201 30
      vertex 3.75 36.4952 30
      vertex 6.69131 37.4314 30
    endloop
  endfacet
  facet normal 0 0 1
    outer loop
      vertex 6.69131 37.4314 30
      vertex 5.3033 35.3033 30
      vertex 8.09017 35.8779 30
    endloop
  endfacet
  facet normal 0 0 1
    outer loop
      vertex -2 37.2201 30
      vertex -4 39.1055 30
      vertex -3.75 36.4952 30
    endloop
  endfacet
  facet normal 0 0 1
    outer loop
      vertex 9.13546 34.0674 30
      vertex 6.49519 33.75 30
      vertex 9.78148 32.0791 30
    endloop
  endfacet
  facet normal 0 0 1
    outer loop
      vertex -2 37.2201 30
      vertex -2 45 30
      vertex -4 39.1055 30
    endloop
  endfacet
  facet normal 0 0 1
    outer loop
      vertex 9.78148 32.0791 30
      vertex 7.24444 31.9411 30
      vertex 10 30 30
    endloop
  endfacet
  facet normal 0 0 1
    outer loop
      vertex 10 30 30
      vertex 7.5 30 30
      vertex 9.78148 27.9209 30
    endloop
  endfacet
  facet normal 0 0 1
    outer loop
      vertex 9.78148 27.9209 30
      vertex 7.24444 28.0589 30
      vertex 9.13546 25.9326 30
    endloop
  endfacet
  facet normal 0 0 1
    outer loop
      vertex 9.13546 25.9326 30
      vertex 6.49519 26.25 30
      vertex 8.09017 24.1221 30
    endloop
  endfacet
  facet normal 0 0 1
    outer loop
      vertex 8.09017 24.1221 30
      vertex 5.3033 24.6967 30
      vertex 6.69131 22.5686 30
    endloop
  endfacet
  facet normal 0 0 1
    outer loop
      vertex 6.69131 22.5686 30
      vertex 3.75 23.5048 30
      vertex 5 21.3397 30
    endloop
  endfacet
  facet normal 0 0 1
    outer loop
      vertex -7.24444 31.9411 30
      vertex -6.49519 33.75 30
      vertex -9.78148 32.0791 30
    endloop
  endfacet
  facet normal 0 0 1
    outer loop
      vertex 5 21.3397 30
      vertex 1.94114 22.7556 30
      vertex 3.09017 20.4894 30
    endloop
  endfacet
  facet normal 0 0 1
    outer loop
      vertex -4 46 30
      vertex -4 39.1055 30
      vertex -2 45 30
    endloop
  endfacet
  facet normal 0 0 1
    outer loop
      vertex 3.09017 20.4894 30
      vertex 0 22.5 30
      vertex 1.04529 20.0548 30
    endloop
  endfacet
  facet normal 0 0 1
    outer loop
      vertex 1.04529 20.0548 30
      vertex -1.94114 22.7556 30
      vertex -1.04529 20.0548 30
    endloop
  endfacet
  facet normal 0 0 1
    outer loop
      vertex -1.04529 20.0548 30
      vertex -3.75 23.5048 30
      vertex -3.09017 20.4894 30
    endloop
  endfacet
  facet normal 0 0 1
    outer loop
      vertex -3.75 23.5048 30
      vertex -5.3033 24.6967 30
      vertex -3.09017 20.4894 30
    endloop
  endfacet
  facet normal 0 0 1
    outer loop
      vertex -3.09017 20.4894 30
      vertex -6.49519 26.25 30
      vertex -5 21.3397 30
    endloop
  endfacet
  facet normal 0 0 1
    outer loop
      vertex 0 22.5 30
      vertex -1.94114 22.7556 30
      vertex 1.04529 20.0548 30
    endloop
  endfacet
  facet normal 0 0 1
    outer loop
      vertex 1.94114 22.7556 30
      vertex 0 22.5 30
      vertex 3.09017 20.4894 30
    endloop
  endfacet
  facet normal 0 0 1
    outer loop
      vertex -4 46 30
      vertex -2 45 30
      vertex -2 46 30
    endloop
  endfacet
  facet normal 0 0 1
    outer loop
      vertex 5.3033 35.3033 30
      vertex 6.49519 33.75 30
      vertex 9.13546 34.0674 30
    endloop
  endfacet
  facet normal 0 0 1
    outer loop
      vertex -7.24444 28.0589 30
      vertex -7.5 30 30
      vertex -9.78148 32.0791 30
    endloop
  endfacet
  facet normal 0 0 1
    outer loop
      vertex -7.5 30 30
      vertex -7.24444 31.9411 30
      vertex -9.78148 32.0791 30
    endloop
  endfacet
  facet normal 0 0 1
    outer loop
      vertex -5 38.6603 30
      vertex -6.69131 37.4314 30
      vertex -9.78148 32.0791 30
    endloop
  endfacet
  facet normal 0 0 1
    outer loop
      vertex -5 38.6603 30
      vertex -9.78148 32.0791 30
      vertex -4 39.1055 30
    endloop
  endfacet
  facet normal 0 0 1
    outer loop
      vertex -8.09017 35.8779 30
      vertex -9.13546 34.0674 30
      vertex -9.78148 32.0791 30
    endloop
  endfacet
  facet normal 0 0 1
    outer loop
      vertex -6.49519 33.75 30
      vertex -5.3033 35.3033 30
      vertex -9.78148 32.0791 30
    endloop
  endfacet
  facet normal 0 0 1
    outer loop
      vertex -3.75 36.4952 30
      vertex -9.78148 32.0791 30
      vertex -5.3033 35.3033 30
    endloop
  endfacet
  facet normal 0 0 1
    outer loop
      vertex 2 45 30
      vertex 4 39.1055 30
      vertex 4 46 30
    endloop
  endfacet
  facet normal 0 0 1
    outer loop
      vertex 4 39.1055 30
      vertex 2 37.2201 30
      vertex 5 38.6603 30
    endloop
  endfacet
  facet normal 0 0 1
    outer loop
      vertex 2 45 30
      vertex 2 37.2201 30
      vertex 4 39.1055 30
    endloop
  endfacet
  facet normal -0.406737 -0.913545 0
    outer loop
      vertex -5 21.3397 30
      vertex -5 21.3397 5
      vertex -3.09017 20.4894 5
    endloop
  endfacet
  facet normal -0.406737 -0.913545 0
    outer loop
      vertex -3.09017 20.4894 30
      vertex -5 21.3397 30
      vertex -3.09017 20.4894 5
    endloop
  endfacet
  facet normal 0 0 1
    outer loop
      vertex -5.75 21.8847 5
      vertex -5.75 0 5
      vertex -5.67158 0 5
    endloop
  endfacet
  facet normal 0 0 1
    outer loop
      vertex -5.05697 2.7367 5
      vertex -5.75 21.8847 5
      vertex -5.67158 0.946419 5
    endloop
  endfacet
  facet normal 0 0 1
    outer loop
      vertex -5.67158 0.946419 5
      vertex -5.75 21.8847 5
      vertex -5.67158 0 5
    endloop
  endfacet
  facet normal 0 0 1
    outer loop
      vertex -3.89437 4.23041 5
      vertex -5.75 21.8847 5
      vertex -5.05697 2.7367 5
    endloop
  endfacet
  facet normal 0 0 1
    outer loop
      vertex -2.30975 5.2657 5
      vertex -5.75 21.8847 5
      vertex -3.89437 4.23041 5
    endloop
  endfacet
  facet normal 0 0 1
    outer loop
      vertex -0.474831 5.73036 5
      vertex -5.75 21.8847 5
      vertex -2.30975 5.2657 5
    endloop
  endfacet
  facet normal 0 0 1
    outer loop
      vertex 1.41154 5.57405 5
      vertex -5.75 21.8847 5
      vertex -0.474831 5.73036 5
    endloop
  endfacet
  facet normal 0 0 1
    outer loop
      vertex 3.14495 4.81371 5
      vertex -5.75 21.8847 5
      vertex 1.41154 5.57405 5
    endloop
  endfacet
  facet normal 0 0 1
    outer loop
      vertex 4.53756 3.53172 5
      vertex -5.75 21.8847 5
      vertex 3.14495 4.81371 5
    endloop
  endfacet
  facet normal 0 0 1
    outer loop
      vertex -5 21.3397 5
      vertex -5.75 21.8847 5
      vertex 4.53756 3.53172 5
    endloop
  endfacet
  facet normal 0 0 1
    outer loop
      vertex 5.75 21.8847 5
      vertex 4.53756 3.53172 5
      vertex 5.43845 1.86702 5
    endloop
  endfacet
  facet normal 0 0 1
    outer loop
      vertex 5.75 21.8847 5
      vertex 5.43845 1.86702 5
      vertex 5.75 0 5
    endloop
  endfacet
  facet normal 0 0 1
    outer loop
      vertex 5.75 21.8847 5
      vertex 5 21.3397 5
      vertex 4.53756 3.53172 5
    endloop
  endfacet
  facet normal 0 0 1
    outer loop
      vertex 5 21.3397 5
      vertex 3.09017 20.4894 5
      vertex 4.53756 3.53172 5
    endloop
  endfacet
  facet normal 0 0 1
    outer loop
      vertex 3.09017 20.4894 5
      vertex 1.04529 20.0548 5
      vertex 4.53756 3.53172 5
    endloop
  endfacet
  facet normal 0 0 1
    outer loop
      vertex 1.04529 20.0548 5
      vertex -1.04529 20.0548 5
      vertex 4.53756 3.53172 5
    endloop
  endfacet
  facet normal 0 0 1
    outer loop
      vertex -1.04529 20.0548 5
      vertex -3.09017 20.4894 5
      vertex 4.53756 3.53172 5
    endloop
  endfacet
  facet normal 0 0 1
    outer loop
      vertex -3.09017 20.4894 5
      vertex -5 21.3397 5
      vertex 4.53756 3.53172 5
    endloop
  endfacet
  facet normal -0.945817 0.324699 0
    outer loop
      vertex -5.67158 0.946419 5
      vertex -5.67158 0.946419 50
      vertex -5.05697 2.7367 5
    endloop
  endfacet
  facet normal -0.945817 0.324699 0
    outer loop
      vertex -5.05697 2.7367 5
      vertex -5.67158 0.946419 50
      vertex -5.05697 2.7367 50
    endloop
  endfacet
  facet normal 0 0 1
    outer loop
      vertex -5.67158 0.946419 50
      vertex -5.67158 -0.946419 50
      vertex -5.05697 -2.7367 50
    endloop
  endfacet
  facet normal 0 0 1
    outer loop
      vertex -2.30975 -5.2657 50
      vertex -5.67158 0.946419 50
      vertex -3.89437 -4.23041 50
    endloop
  endfacet
  facet normal 0 0 1
    outer loop
      vertex -3.89437 -4.23041 50
      vertex -5.67158 0.946419 50
      vertex -5.05697 -2.7367 50
    endloop
  endfacet
  facet normal 0 0 1
    outer loop
      vertex -0.474831 -5.73036 50
      vertex -5.67158 0.946419 50
      vertex -2.30975 -5.2657 50
    endloop
  endfacet
  facet normal 0 0 1
    outer loop
      vertex 1.41154 -5.57405 50
      vertex -5.67158 0.946419 50
      vertex -0.474831 -5.73036 50
    endloop
  endfacet
  facet normal 0 0 1
    outer loop
      vertex 3.14495 -4.81371 50
      vertex -5.67158 0.946419 50
      vertex 1.41154 -5.57405 50
    endloop
  endfacet
  facet normal 0 0 1
    outer loop
      vertex 4.53756 -3.53172 50
      vertex -5.67158 0.946419 50
      vertex 3.14495 -4.81371 50
    endloop
  endfacet
  facet normal 0 0 1
    outer loop
      vertex 5.43845 -1.86702 50
      vertex -5.67158 0.946419 50
      vertex 4.53756 -3.53172 50
    endloop
  endfacet
  facet normal 0 0 1
    outer loop
      vertex 5.75 0 50
      vertex -5.67158 0.946419 50
      vertex 5.43845 -1.86702 50
    endloop
  endfacet
  facet normal 0 0 1
    outer loop
      vertex 5.43845 1.86702 50
      vertex -5.67158 0.946419 50
      vertex 5.75 0 50
    endloop
  endfacet
  facet normal 0 0 1
    outer loop
      vertex 4.53756 3.53172 50
      vertex -5.67158 0.946419 50
      vertex 5.43845 1.86702 50
    endloop
  endfacet
  facet normal 0 0 1
    outer loop
      vertex 3.14495 4.81371 50
      vertex -5.67158 0.946419 50
      vertex 4.53756 3.53172 50
    endloop
  endfacet
  facet normal 0 0 1
    outer loop
      vertex 1.41154 5.57405 50
      vertex -5.67158 0.946419 50
      vertex 3.14495 4.81371 50
    endloop
  endfacet
  facet normal 0 0 1
    outer loop
      vertex -0.474831 5.73036 50
      vertex -5.67158 0.946419 50
      vertex 1.41154 5.57405 50
    endloop
  endfacet
  facet normal 0 0 1
    outer loop
      vertex -2.30975 5.2657 50
      vertex -5.67158 0.946419 50
      vertex -0.474831 5.73036 50
    endloop
  endfacet
  facet normal 0 0 1
    outer loop
      vertex -3.89437 4.23041 50
      vertex -5.67158 0.946419 50
      vertex -2.30975 5.2657 50
    endloop
  endfacet
  facet normal 0 0 1
    outer loop
      vertex -5.05697 2.7367 50
      vertex -5.67158 0.946419 50
      vertex -3.89437 4.23041 50
    endloop
  endfacet
  facet normal 0.986361 0.164595 0
    outer loop
      vertex 5.75 0 5
      vertex 5.43845 1.86702 5
      vertex 5.43845 1.86702 50
    endloop
  endfacet
  facet normal 0.986361 0.164595 0
    outer loop
      vertex 5.75 0 50
      vertex 5.75 0 5
      vertex 5.43845 1.86702 50
    endloop
  endfacet
  facet normal 0.406737 -0.913545 0
    outer loop
      vertex 3.09017 20.4894 30
      vertex 3.09017 20.4894 5
      vertex 5 21.3397 5
    endloop
  endfacet
  facet normal 0.406737 -0.913545 0
    outer loop
      vertex 5 21.3397 30
      vertex 3.09017 20.4894 30
      vertex 5 21.3397 5
    endloop
  endfacet
  facet normal 2.22045e-16 1 4.93038e-32
    outer loop
      vertex 4 40.7865 4.11832
      vertex 2 40.7865 4.11832
      vertex 4 40.7865 5.88168
    endloop
  endfacet
  facet normal 2.22045e-16 1 4.93038e-32
    outer loop
      vertex 4 40.7865 5.88168
      vertex 2 40.7865 4.11832
      vertex 2 40.7865 5.88168
    endloop
  endfacet
  facet normal -1.42561e-16 0.309017 0.951056
    outer loop
      vertex 4 40.7865 4.11832
      vertex 4 42.4635 3.57342
      vertex 2 42.4635 3.57342
    endloop
  endfacet
  facet normal -1.42561e-16 0.309017 0.951056
    outer loop
      vertex 2 40.7865 4.11832
      vertex 4 40.7865 4.11832
      vertex 2 42.4635 3.57342
    endloop
  endfacet
  facet normal -3.10152e-16 -0.809017 0.587785
    outer loop
      vertex 4 42.4635 3.57342
      vertex 4 43.5 5
      vertex 2 43.5 5
    endloop
  endfacet
  facet normal -3.10152e-16 -0.809017 0.587785
    outer loop
      vertex 2 42.4635 3.57342
      vertex 4 42.4635 3.57342
      vertex 2 43.5 5
    endloop
  endfacet
  facet normal -4.91233e-17 -0.809017 -0.587785
    outer loop
      vertex 2 43.5 5
      vertex 4 43.5 5
      vertex 4 42.4635 6.42659
    endloop
  endfacet
  facet normal -4.91233e-17 -0.809017 -0.587785
    outer loop
      vertex 2 42.4635 6.42659
      vertex 2 43.5 5
      vertex 4 42.4635 6.42659
    endloop
  endfacet
  facet normal 2.79793e-16 0.309017 -0.951056
    outer loop
      vertex 4 42.4635 6.42659
      vertex 4 40.7865 5.88168
      vertex 2 42.4635 6.42659
    endloop
  endfacet
  facet normal 2.79793e-16 0.309017 -0.951056
    outer loop
      vertex 2 42.4635 6.42659
      vertex 4 40.7865 5.88168
      vertex 2 40.7865 5.88168
    endloop
  endfacet
  facet normal 2.22045e-16 1 4.93038e-32
    outer loop
      vertex 4 40.7865 14.1183
      vertex 2 40.7865 14.1183
      vertex 4 40.7865 15.8817
    endloop
  endfacet
  facet normal 2.22045e-16 1 4.93038e-32
    outer loop
      vertex 4 40.7865 15.8817
      vertex 2 40.7865 14.1183
      vertex 2 40.7865 15.8817
    endloop
  endfacet
  facet normal -1.42561e-16 0.309017 0.951056
    outer loop
      vertex 4 40.7865 14.1183
      vertex 4 42.4635 13.5734
      vertex 2 42.4635 13.5734
    endloop
  endfacet
  facet normal -1.42561e-16 0.309017 0.951056
    outer loop
      vertex 2 40.7865 14.1183
      vertex 4 40.7865 14.1183
      vertex 2 42.4635 13.5734
    endloop
  endfacet
  facet normal -3.10152e-16 -0.809017 0.587785
    outer loop
      vertex 4 42.4635 13.5734
      vertex 4 43.5 15
      vertex 2 43.5 15
    endloop
  endfacet
  facet normal -3.10152e-16 -0.809017 0.587785
    outer loop
      vertex 2 42.4635 13.5734
      vertex 4 42.4635 13.5734
      vertex 2 43.5 15
    endloop
  endfacet
  facet normal -4.91233e-17 -0.809017 -0.587785
    outer loop
      vertex 2 43.5 15
      vertex 4 43.5 15
      vertex 4 42.4635 16.4266
    endloop
  endfacet
  facet normal -4.91233e-17 -0.809017 -0.587785
    outer loop
      vertex 2 42.4635 16.4266
      vertex 2 43.5 15
      vertex 4 42.4635 16.4266
    endloop
  endfacet
  facet normal 2.79793e-16 0.309017 -0.951056
    outer loop
      vertex 4 42.4635 16.4266
      vertex 4 40.7865 15.8817
      vertex 2 42.4635 16.4266
    endloop
  endfacet
  facet normal 2.79793e-16 0.309017 -0.951056
    outer loop
      vertex 2 42.4635 16.4266
      vertex 4 40.7865 15.8817
      vertex 2 40.7865 15.8817
    endloop
  endfacet
  facet normal 2.22045e-16 1 4.93038e-32
    outer loop
      vertex 4 40.7865 24.1183
      vertex 2 40.7865 24.1183
      vertex 4 40.7865 25.8817
    endloop
  endfacet
  facet normal 2.22045e-16 1 4.93038e-32
    outer loop
      vertex 4 40.7865 25.8817
      vertex 2 40.7865 24.1183
      vertex 2 40.7865 25.8817
    endloop
  endfacet
  facet normal -1.42561e-16 0.309017 0.951056
    outer loop
      vertex 4 40.7865 24.1183
      vertex 4 42.4635 23.5734
      vertex 2 42.4635 23.5734
    endloop
  endfacet
  facet normal -1.42561e-16 0.309017 0.951056
    outer loop
      vertex 2 40.7865 24.1183
      vertex 4 40.7865 24.1183
      vertex 2 42.4635 23.5734
    endloop
  endfacet
  facet normal -3.10152e-16 -0.809017 0.587785
    outer loop
      vertex 4 42.4635 23.5734
      vertex 4 43.5 25
      vertex 2 43.5 25
    endloop
  endfacet
  facet normal -3.10152e-16 -0.809017 0.587785
    outer loop
      vertex 2 42.4635 23.5734
      vertex 4 42.4635 23.5734
      vertex 2 43.5 25
    endloop
  endfacet
  facet normal -4.91233e-17 -0.809017 -0.587785
    outer loop
      vertex 2 43.5 25
      vertex 4 43.5 25
      vertex 4 42.4635 26.4266
    endloop
  endfacet
  facet normal -4.91233e-17 -0.809017 -0.587785
    outer loop
      vertex 2 42.4635 26.4266
      vertex 2 43.5 25
      vertex 4 42.4635 26.4266
    endloop
  endfacet
  facet normal 2.79793e-16 0.309017 -0.951056
    outer loop
      vertex 4 42.4635 26.4266
      vertex 4 40.7865 25.8817
      vertex 2 42.4635 26.4266
    endloop
  endfacet
  facet normal 2.79793e-16 0.309017 -0.951056
    outer loop
      vertex 2 42.4635 26.4266
      vertex 4 40.7865 25.8817
      vertex 2 40.7865 25.8817
    endloop
  endfacet
  facet normal 2.22045e-16 1 4.93038e-32
    outer loop
      vertex -2 40.7865 4.11832
      vertex -4 40.7865 4.11832
      vertex -2 40.7865 5.88168
    endloop
  endfacet
  facet normal 2.22045e-16 1 4.93038e-32
    outer loop
      vertex -2 40.7865 5.88168
      vertex -4 40.7865 4.11832
      vertex -4 40.7865 5.88168
    endloop
  endfacet
  facet normal -1.42561e-16 0.309017 0.951056
    outer loop
      vertex -2 40.7865 4.11832
      vertex -2 42.4635 3.57342
      vertex -4 42.4635 3.57342
    endloop
  endfacet
  facet normal -1.42561e-16 0.309017 0.951056
    outer loop
      vertex -4 40.7865 4.11832
      vertex -2 40.7865 4.11832
      vertex -4 42.4635 3.57342
    endloop
  endfacet
  facet normal -3.10152e-16 -0.809017 0.587785
    outer loop
      vertex -2 42.4635 3.57342
      vertex -2 43.5 5
      vertex -4 43.5 5
    endloop
  endfacet
  facet normal -3.10152e-16 -0.809017 0.587785
    outer loop
      vertex -4 42.4635 3.57342
      vertex -2 42.4635 3.57342
      vertex -4 43.5 5
    endloop
  endfacet
  facet normal -4.91233e-17 -0.809017 -0.587785
    outer loop
      vertex -4 43.5 5
      vertex -2 43.5 5
      vertex -2 42.4635 6.42659
    endloop
  endfacet
  facet normal -4.91233e-17 -0.809017 -0.587785
    outer loop
      vertex -4 42.4635 6.42659
      vertex -4 43.5 5
      vertex -2 42.4635 6.42659
    endloop
  endfacet
  facet normal 2.79793e-16 0.309017 -0.951056
    outer loop
      vertex -2 42.4635 6.42659
      vertex -2 40.7865 5.88168
      vertex -4 42.4635 6.42659
    endloop
  endfacet
  facet normal 2.79793e-16 0.309017 -0.951056
    outer loop
      vertex -4 42.4635 6.42659
      vertex -2 40.7865 5.88168
      vertex -4 40.7865 5.88168
    endloop
  endfacet
  facet normal 2.22045e-16 1 4.93038e-32
    outer loop
      vertex -2 40.7865 14.1183
      vertex -4 40.7865 14.1183
      vertex -2 40.7865 15.8817
    endloop
  endfacet
  facet normal 2.22045e-16 1 4.93038e-32
    outer loop
      vertex -2 40.7865 15.8817
      vertex -4 40.7865 14.1183
      vertex -4 40.7865 15.8817
    endloop
  endfacet
  facet normal -1.42561e-16 0.309017 0.951056
    outer loop
      vertex -2 40.7865 14.1183
      vertex -2 42.4635 13.5734
      vertex -4 42.4635 13.5734
    endloop
  endfacet
  facet normal -1.42561e-16 0.309017 0.951056
    outer loop
      vertex -4 40.7865 14.1183
      vertex -2 40.7865 14.1183
      vertex -4 42.4635 13.5734
    endloop
  endfacet
  facet normal -3.10152e-16 -0.809017 0.587785
    outer loop
      vertex -2 42.4635 13.5734
      vertex -2 43.5 15
      vertex -4 43.5 15
    endloop
  endfacet
  facet normal -3.10152e-16 -0.809017 0.587785
    outer loop
      vertex -4 42.4635 13.5734
      vertex -2 42.4635 13.5734
      vertex -4 43.5 15
    endloop
  endfacet
  facet normal -4.91233e-17 -0.809017 -0.587785
    outer loop
      vertex -4 43.5 15
      vertex -2 43.5 15
      vertex -2 42.4635 16.4266
    endloop
  endfacet
  facet normal -4.91233e-17 -0.809017 -0.587785
    outer loop
      vertex -4 42.4635 16.4266
      vertex -4 43.5 15
      vertex -2 42.4635 16.4266
    endloop
  endfacet
  facet normal 2.79793e-16 0.309017 -0.951056
    outer loop
      vertex -2 42.4635 16.4266
      vertex -2 40.7865 15.8817
      vertex -4 42.4635 16.4266
    endloop
  endfacet
  facet normal 2.79793e-16 0.309017 -0.951056
    outer loop
      vertex -4 42.4635 16.4266
      vertex -2 40.7865 15.8817
      vertex -4 40.7865 15.8817
    endloop
  endfacet
  facet normal 2.22045e-16 1 4.93038e-32
    outer loop
      vertex -2 40.7865 24.1183
      vertex -4 40.7865 24.1183
      vertex -2 40.7865 25.8817
    endloop
  endfacet
  facet normal 2.22045e-16 1 4.93038e-32
    outer loop
      vertex -2 40.7865 25.8817
      vertex -4 40.7865 24.1183
      vertex -4 40.7865 25.8817
    endloop
  endfacet
  facet normal -1.42561e-16 0.309017 0.951056
    outer loop
      vertex -2 40.7865 24.1183
      vertex -2 42.4635 23.5734
      vertex -4 42.4635 23.5734
    endloop
  endfacet
  facet normal -1.42561e-16 0.309017 0.951056
    outer loop
      vertex -4 40.7865 24.1183
      vertex -2 40.7865 24.1183
      vertex -4 42.4635 23.5734
    endloop
  endfacet
  facet normal -3.10152e-16 -0.809017 0.587785
    outer loop
      vertex -2 42.4635 23.5734
      vertex -2 43.5 25
      vertex -4 43.5 25
    endloop
  endfacet
  facet normal -3.10152e-16 -0.809017 0.587785
    outer loop
      vertex -4 42.4635 23.5734
      vertex -2 42.4635 23.5734
      vertex -4 43.5 25
    endloop
  endfacet
  facet normal -4.91233e-17 -0.809017 -0.587785
    outer loop
      vertex -4 43.5 25
      vertex -2 43.5 25
      vertex -2 42.4635 26.4266
    endloop
  endfacet
  facet normal -4.91233e-17 -0.809017 -0.587785
    outer loop
      vertex -4 42.4635 26.4266
      vertex -4 43.5 25
      vertex -2 42.4635 26.4266
    endloop
  endfacet
  facet normal 2.79793e-16 0.309017 -0.951056
    outer loop
      vertex -2 42.4635 26.4266
      vertex -2 40.7865 25.8817
      vertex -4 42.4635 26.4266
    endloop
  endfacet
  facet normal 2.79793e-16 0.309017 -0.951056
    outer loop
      vertex -4 42.4635 26.4266
      vertex -2 40.7865 25.8817
      vertex -4 40.7865 25.8817
    endloop
  endfacet
  facet normal 0.207912 -0.978148 0
    outer loop
      vertex 1.04529 20.0548 30
      vertex 1.04529 20.0548 5
      vertex 3.09017 20.4894 5
    endloop
  endfacet
  facet normal 0.207912 -0.978148 0
    outer loop
      vertex 3.09017 20.4894 30
      vertex 1.04529 20.0548 30
      vertex 3.09017 20.4894 5
    endloop
  endfacet
  facet normal 0 -1 0
    outer loop
      vertex -1.04529 20.0548 30
      vertex -1.04529 20.0548 5
      vertex 1.04529 20.0548 5
    endloop
  endfacet
  facet normal 0 -1 0
    outer loop
      vertex 1.04529 20.0548 30
      vertex -1.04529 20.0548 30
      vertex 1.04529 20.0548 5
    endloop
  endfacet
  facet normal -0.207912 -0.978148 0
    outer loop
      vertex -3.09017 20.4894 30
      vertex -3.09017 20.4894 5
      vertex -1.04529 20.0548 5
    endloop
  endfacet
  facet normal -0.207912 -0.978148 0
    outer loop
      vertex -1.04529 20.0548 30
      vertex -3.09017 20.4894 30
      vertex -1.04529 20.0548 5
    endloop
  endfacet
  facet normal 0.879474 0.475947 0
    outer loop
      vertex 5.43845 1.86702 5
      vertex 4.53756 3.53172 5
      vertex 4.53756 3.53172 50
    endloop
  endfacet
  facet normal 0.879474 0.475947 0
    outer loop
      vertex 5.43845 1.86702 50
      vertex 5.43845 1.86702 5
      vertex 4.53756 3.53172 50
    endloop
  endfacet
  facet normal 0.677282 0.735724 0
    outer loop
      vertex 3.14495 4.81371 5
      vertex 3.14495 4.81371 50
      vertex 4.53756 3.53172 5
    endloop
  endfacet
  facet normal 0.677282 0.735724 0
    outer loop
      vertex 4.53756 3.53172 5
      vertex 3.14495 4.81371 50
      vertex 4.53756 3.53172 50
    endloop
  endfacet
  facet normal 0.401696 0.915773 0
    outer loop
      vertex 1.41154 5.57405 5
      vertex 1.41154 5.57405 50
      vertex 3.14495 4.81371 5
    endloop
  endfacet
  facet normal 0.401696 0.915773 0
    outer loop
      vertex 3.14495 4.81371 5
      vertex 1.41154 5.57405 50
      vertex 3.14495 4.81371 50
    endloop
  endfacet
  facet normal 0.0825792 0.996585 0
    outer loop
      vertex -0.474831 5.73036 5
      vertex -0.474831 5.73036 50
      vertex 1.41154 5.57405 5
    endloop
  endfacet
  facet normal 0.0825792 0.996585 0
    outer loop
      vertex 1.41154 5.57405 5
      vertex -0.474831 5.73036 50
      vertex 1.41154 5.57405 50
    endloop
  endfacet
  facet normal -0.245485 0.9694 0
    outer loop
      vertex -2.30975 5.2657 5
      vertex -2.30975 5.2657 50
      vertex -0.474831 5.73036 5
    endloop
  endfacet
  facet normal -0.245485 0.9694 0
    outer loop
      vertex -0.474831 5.73036 5
      vertex -2.30975 5.2657 50
      vertex -0.474831 5.73036 50
    endloop
  endfacet
  facet normal -0.546949 0.837166 0
    outer loop
      vertex -3.89437 4.23041 5
      vertex -3.89437 4.23041 50
      vertex -2.30975 5.2657 5
    endloop
  endfacet
  facet normal -0.546949 0.837166 0
    outer loop
      vertex -2.30975 5.2657 5
      vertex -3.89437 4.23041 50
      vertex -2.30975 5.2657 50
    endloop
  endfacet
  facet normal -0.78914 0.614213 0
    outer loop
      vertex -5.05697 2.7367 5
      vertex -5.05697 2.7367 50
      vertex -3.89437 4.23041 5
    endloop
  endfacet
  facet normal -0.78914 0.614213 0
    outer loop
      vertex -3.89437 4.23041 5
      vertex -5.05697 2.7367 50
      vertex -3.89437 4.23041 50
    endloop
  endfacet
endsolid OpenSCAD_Model
